<?xml version="1.0" encoding="utf-8"?>
<!-- Generator: Adobe Illustrator 28.3.0, SVG Export Plug-In . SVG Version: 6.00 Build 0)  -->
<svg version="1.1" id="Capa_1" xmlns="http://www.w3.org/2000/svg" xmlns:xlink="http://www.w3.org/1999/xlink" x="0px" y="0px"
	 viewBox="0 0 128 128" style="enable-background:new 0 0 128 128;" xml:space="preserve">
<style type="text/css">
	.st0{fill:#FFFFFF;}
	.st1{fill:#FFCC00;}
</style>
<g>
	<path d="M60.1,125.5c-15.5,0-32-8.6-43.6-22.4c-12.1-14.8-16.7-33-13-51.7c4.9-23.8,24.1-43,48.2-47.7C55.6,3,59.8,2.5,64,2.5
		c33.7,0,61.5,27.6,61.5,61.3c0,9.6-7.9,17.5-17.5,17.5H89.6c-4.7,0-8.9,2.5-11.3,6.4c-2.5,3.9-2.5,8.6-0.5,12.8
		c2.5,5.2,2.5,11.1,0,16.2c-2.5,4.7-6.6,7.9-11.6,8.6C64.2,125.3,62.3,125.5,60.1,125.5z M51.2,97c-3,0-5.2,1.2-5.9,3.2
		c-1,2.7,1.7,6.2,5.9,7.6c1.2,0.5,2.2,0.5,3.4,0.5c3,0,5.2-1.2,5.9-3.2c1-2.7-1.7-6.2-5.9-7.6C53.7,97.2,52.4,97,51.2,97z"/>
	<path class="st0" d="M64,4.9c32.5,0,59.1,26.3,59.1,58.8c0,8.1-6.6,15-15,15H89.6c-11.8,0-19.4,12.3-14,22.6
		c4.4,8.6-0.2,19.7-9.8,21.2c-1.7,0.2-3.7,0.5-5.7,0.5c-28.3,0-62-30.8-54.2-71.1c4.4-22.9,22.9-41.4,46-45.8
		C56.1,5.4,60.1,4.9,64,4.9 M54.9,111c3.9,0,7.1-1.7,8.1-4.9c1.5-4.2-2-8.9-7.6-10.8c-1.5-0.5-3-0.7-4.2-0.7c-3.9,0-7.1,1.7-8.1,4.9
		c-1.5,4.2,2,8.9,7.6,10.8C51.9,110.8,53.4,111,54.9,111 M64,0c-4.2,0-8.6,0.5-12.8,1.2c-24.9,5-45,24.9-50,49.8
		c-3.7,19.4,1,38.4,13.5,53.7C26.6,118.9,44.1,128,60.1,128c2.2,0,4.4-0.2,6.4-0.5c5.7-1,10.6-4.4,13.3-9.8c3-5.7,3-12.6,0-18.5
		c-1.7-3.4-1.5-7.1,0.5-10.3c2-3.2,5.4-5.2,9.4-5.2h18.5c10.8,0,19.9-8.9,19.9-19.9C128,28.6,99.2,0,64,0L64,0z M54.9,106.1
		c-1,0-1.7-0.2-2.7-0.5c-1.7-0.5-3-1.5-3.9-2.7c-0.2-0.2-0.7-1.2-0.5-2c0.2-0.7,1.5-1.5,3.4-1.5c1,0,1.7,0.2,2.7,0.5
		c1.7,0.5,3,1.5,3.9,2.7c0.2,0.2,0.7,1.2,0.5,2C58.1,105.1,56.9,106.1,54.9,106.1L54.9,106.1z"/>
</g>
<path class="st0" d="M29.5,69.9V37.7c0-0.5,0.2-0.7,0.7-0.7h9.4c0.5,0,0.7,0.2,0.7,0.7v32.2c0,0.5-0.2,0.7-0.7,0.7h-9.4
	C29.8,70.6,29.5,70.4,29.5,69.9z"/>
<ellipse class="st1" cx="34.9" cy="27.3" rx="6.2" ry="6.2"/>
<path class="st0" d="M104.1,69.4L78.3,23.9c-0.2-0.2-0.5-0.5-0.7-0.5h-8.9c-0.2,0-0.5,0.2-0.2,0.5L82,49l0,0l0.7,1.5
	c0.2,0.5,0,1.2-0.7,1.2h-3.2H56.1c-0.5,0-1,0.2-1.2,0.7l-9.8,17c-0.2,0.5,0,1.2,0.7,1.2h10.8c0.2,0,0.5-0.2,0.7-0.5l5.2-9.6
	c0.2-0.2,0.5-0.5,0.7-0.5h24.4c0.5,0,0.7,0.2,1,0.5l5.2,9.4c0.2,0.2,0.5,0.5,0.7,0.5h8.9C103.9,70.6,104.4,69.9,104.1,69.4z"/>
</svg>
