<?xml version="1.0" encoding="utf-8"?>
<!-- Generator: Adobe Illustrator 28.3.0, SVG Export Plug-In . SVG Version: 6.00 Build 0)  -->
<svg version="1.1" id="Capa_1" xmlns="http://www.w3.org/2000/svg" xmlns:xlink="http://www.w3.org/1999/xlink" x="0px" y="0px"
	 viewBox="0 0 52 52" style="enable-background:new 0 0 52 52;" xml:space="preserve">
<style type="text/css">
	.st0{fill:#FFCC00;}
	.st1{fill:#FFFFFF;}
	.st2{fill:#1D1D1B;}
	.st3{fill:#FFE88C;}
</style>
<g>
	<path class="st0" d="M24.4,51c-6.3,0-13-3.5-17.7-9.1c-4.9-6-6.8-13.4-5.3-21C3.4,11.2,11.2,3.4,21,1.5C22.6,1.2,24.3,1,26,1
		c13.7,0,25,11.2,25,24.9c0,3.9-3.2,7.1-7.1,7.1h-7.5c-1.9,0-3.6,1-4.6,2.6c-1,1.6-1,3.5-0.2,5.2c1,2.1,1,4.5,0,6.6
		c-1,1.9-2.7,3.2-4.7,3.5C26.1,50.9,25.3,51,24.4,51z M20.8,39.4c-1.2,0-2.1,0.5-2.4,1.3c-0.4,1.1,0.7,2.5,2.4,3.1
		c0.5,0.2,0.9,0.2,1.4,0.2c1.2,0,2.1-0.5,2.4-1.3c0.4-1.1-0.7-2.5-2.4-3.1C21.8,39.5,21.3,39.4,20.8,39.4z"/>
	<path class="st1" d="M26,2c13.2,0,24,10.7,24,23.9c0,3.3-2.7,6.1-6.1,6.1h-7.5c-4.8,0-7.9,5-5.7,9.2c1.8,3.5-0.1,8-4,8.6
		C26,49.9,25.2,50,24.4,50c-11.5,0-25.2-12.5-22-28.9c1.8-9.3,9.3-16.8,18.7-18.6C22.8,2.2,24.4,2,26,2 M22.3,45.1
		c1.6,0,2.9-0.7,3.3-2c0.6-1.7-0.8-3.6-3.1-4.4c-0.6-0.2-1.2-0.3-1.7-0.3c-1.6,0-2.9,0.7-3.3,2c-0.6,1.7,0.8,3.6,3.1,4.4
		C21.1,45,21.7,45.1,22.3,45.1 M26,0c-1.7,0-3.5,0.2-5.2,0.5C10.7,2.5,2.5,10.6,0.5,20.7C-1,28.6,0.9,36.3,6,42.5
		c4.8,5.8,11.9,9.5,18.4,9.5c0.9,0,1.8-0.1,2.6-0.2c2.3-0.4,4.3-1.8,5.4-4c1.2-2.3,1.2-5.1,0-7.5c-0.7-1.4-0.6-2.9,0.2-4.2
		c0.8-1.3,2.2-2.1,3.8-2.1h7.5c4.4,0,8.1-3.6,8.1-8.1C52,11.6,40.3,0,26,0L26,0z M22.3,43.1c-0.4,0-0.7-0.1-1.1-0.2
		c-0.7-0.2-1.2-0.6-1.6-1.1c-0.1-0.1-0.3-0.5-0.2-0.8c0.1-0.3,0.6-0.6,1.4-0.6c0.4,0,0.7,0.1,1.1,0.2c0.7,0.2,1.2,0.6,1.6,1.1
		c0.1,0.1,0.3,0.5,0.2,0.8C23.6,42.7,23.1,43.1,22.3,43.1L22.3,43.1z"/>
</g>
<path class="st2" d="M12,28.4V15.3c0-0.2,0.1-0.3,0.3-0.3h3.8c0.2,0,0.3,0.1,0.3,0.3v13.1c0,0.2-0.1,0.3-0.3,0.3h-3.8
	C12.1,28.7,12,28.6,12,28.4z"/>
<circle class="st3" cx="14.2" cy="11.1" r="2.5"/>
<path class="st2" d="M42.3,28.2L31.8,9.7c-0.1-0.1-0.2-0.2-0.3-0.2h-3.6c-0.1,0-0.2,0.1-0.1,0.2l5.5,10.2l0,0l0.3,0.6
	c0.1,0.2,0,0.5-0.3,0.5H32h-9.2c-0.2,0-0.4,0.1-0.5,0.3l-4,6.9c-0.1,0.2,0,0.5,0.3,0.5H23c0.1,0,0.2-0.1,0.3-0.2l2.1-3.9
	c0.1-0.1,0.2-0.2,0.3-0.2h9.9c0.2,0,0.3,0.1,0.4,0.2l2.1,3.8c0.1,0.1,0.2,0.2,0.3,0.2H42C42.2,28.7,42.4,28.4,42.3,28.2z"/>
</svg>
